<?xml version="1.0" encoding="UTF-8" ?>
<!DOCTYPE svg PUBLIC "-//W3C//DTD SVG 1.1//EN" "http://www.w3.org/Graphics/SVG/1.1/DTD/svg11.dtd">
<svg width="50pt" height="50pt" viewBox="0 0 50 50" version="1.1" xmlns="http://www.w3.org/2000/svg">
<g id="#000000ff">
<path fill="#000000" opacity="1.00" d=" M 38.10 5.24 C 41.06 4.36 44.01 3.35 47.10 3.01 C 46.55 6.03 45.66 8.97 44.76 11.89 C 42.95 11.90 41.15 12.06 39.34 12.06 C 32.85 18.60 26.36 25.13 19.78 31.59 C 19.55 31.17 19.09 30.32 18.86 29.90 C 25.04 23.32 31.61 17.09 37.95 10.66 C 37.94 8.85 38.10 7.05 38.10 5.24 Z" />
<path fill="#000000" opacity="1.00" d=" M 9.74 31.80 C 11.79 28.92 15.65 30.26 18.62 30.00 C 15.19 33.36 11.85 36.80 8.41 40.13 C 8.91 40.38 9.91 40.87 10.42 41.12 C 13.51 37.82 16.77 34.68 19.98 31.50 C 19.77 34.42 21.04 38.20 18.23 40.24 C 15.52 42.55 13.52 45.87 10.13 47.26 C 10.08 45.29 10.03 43.32 10.05 41.34 C 9.08 42.28 8.16 43.28 7.09 44.09 C 4.42 43.17 7.66 41.18 8.43 40.02 C 6.52 40.02 4.62 39.87 2.71 39.80 C 4.26 36.52 7.40 34.47 9.74 31.80 Z" />
</g>
</svg>
