<?xml version="1.0" encoding="UTF-8" ?>
<!DOCTYPE svg PUBLIC "-//W3C//DTD SVG 1.1//EN" "http://www.w3.org/Graphics/SVG/1.1/DTD/svg11.dtd">
<svg width="64pt" height="64pt" viewBox="0 0 64 64" version="1.1" xmlns="http://www.w3.org/2000/svg">
<g id="#000000d4">
<path fill="#000000" opacity="0.83" d=" M 10.22 8.29 C 11.74 7.61 13.03 9.00 14.03 9.94 C 17.67 13.65 21.42 17.24 25.01 20.99 C 26.17 21.92 25.62 23.43 26.10 24.64 C 35.86 34.34 45.59 44.06 55.28 53.83 C 56.85 54.64 54.73 56.85 53.86 55.32 C 44.13 45.59 34.37 35.89 24.67 26.13 C 20.92 26.29 18.97 22.74 16.46 20.53 C 13.88 17.83 11.03 15.38 8.64 12.51 C 7.40 11.03 8.61 8.85 10.22 8.29 M 10.28 10.32 L 10.41 11.63 C 14.63 15.73 18.64 20.04 22.97 24.03 C 23.21 23.80 23.71 23.34 23.96 23.11 C 20.25 18.57 15.65 14.70 11.62 10.39 L 10.28 10.32 Z" />
</g>
</svg>
