<?xml version="1.0" encoding="UTF-8" ?>
<!DOCTYPE svg PUBLIC "-//W3C//DTD SVG 1.1//EN" "http://www.w3.org/Graphics/SVG/1.1/DTD/svg11.dtd">
<svg width="512pt" height="512pt" viewBox="0 0 512 512" version="1.1" xmlns="http://www.w3.org/2000/svg">
<g id="#000000ff">
<path fill="#000000" opacity="1.00" d=" M 45.08 34.13 C 53.38 30.37 63.80 32.28 70.22 38.74 C 95.31 63.81 120.40 88.87 145.46 113.97 C 134.97 124.46 124.50 134.97 113.98 145.43 C 88.90 120.38 63.84 95.31 38.77 70.24 C 33.41 65.08 30.93 57.18 32.44 49.89 C 33.73 42.97 38.62 36.90 45.08 34.13 Z" />
<path fill="#000000" opacity="1.00" d=" M 125.27 156.75 C 135.77 146.28 146.25 135.79 156.73 125.30 C 163.42 131.95 170.08 138.64 176.76 145.31 C 166.30 155.83 155.81 166.32 145.29 176.79 C 138.63 170.10 131.94 163.43 125.27 156.75 Z" />
<path fill="#000000" opacity="1.00" d=" M 156.67 188.12 C 167.14 177.62 177.63 167.14 188.13 156.65 C 254.74 223.20 321.31 289.80 387.88 356.39 C 377.43 366.92 366.92 377.40 356.41 387.87 C 289.87 321.25 223.23 254.72 156.67 188.12 Z" />
<path fill="#000000" opacity="1.00" d=" M 338.07 283.94 C 365.79 283.87 393.50 283.85 421.22 283.69 C 437.15 299.40 452.90 315.29 468.70 331.12 C 440.98 331.24 413.26 331.24 385.54 331.36 C 369.66 315.62 353.89 299.76 338.07 283.94 Z" />
<path fill="#000000" opacity="1.00" d=" M 283.97 338.07 C 299.78 353.90 315.69 369.64 331.39 385.59 C 331.20 413.29 331.25 440.99 331.13 468.69 C 315.33 452.86 299.46 437.09 283.70 421.22 C 283.86 393.50 283.84 365.79 283.97 338.07 Z" />
</g>
</svg>
