<?xml version="1.0" encoding="UTF-8" ?>
<!DOCTYPE svg PUBLIC "-//W3C//DTD SVG 1.1//EN" "http://www.w3.org/Graphics/SVG/1.1/DTD/svg11.dtd">
<svg width="512pt" height="512pt" viewBox="0 0 512 512" version="1.1" xmlns="http://www.w3.org/2000/svg">
<g id="#000000ff">
<path fill="#000000" opacity="1.00" d=" M 234.91 173.85 C 247.87 168.52 262.79 168.31 275.94 173.07 C 293.09 179.15 306.90 193.68 312.12 211.10 C 288.51 214.43 267.12 229.85 256.45 251.17 C 245.76 229.89 224.43 214.37 200.80 211.10 C 205.79 194.39 218.68 180.27 234.91 173.85 Z" />
<path fill="#000000" opacity="1.00" d=" M 185.36 226.48 C 199.88 225.26 214.83 229.71 226.21 238.83 C 237.46 247.65 245.27 260.75 247.59 274.87 C 250.18 289.50 246.69 305.05 238.30 317.29 C 229.76 329.88 216.14 338.96 201.15 341.73 C 186.59 344.67 170.98 341.51 158.55 333.41 C 145.23 324.83 135.63 310.62 132.89 294.99 C 129.97 279.74 133.69 263.40 142.74 250.81 C 152.48 236.97 168.50 227.85 185.36 226.48 Z" />
<path fill="#000000" opacity="1.00" d=" M 318.36 226.44 C 332.39 225.38 346.79 229.60 357.94 238.20 C 369.60 247.02 377.75 260.37 380.13 274.80 C 383.03 290.98 378.44 308.26 368.09 321.00 C 359.43 331.83 346.80 339.45 333.12 341.84 C 318.12 344.71 302.07 341.12 289.58 332.38 C 276.78 323.57 267.75 309.47 265.28 294.11 C 262.67 279.21 266.36 263.38 275.11 251.06 C 284.94 236.98 301.23 227.69 318.36 226.44 Z" />
</g>
</svg>
